<svg width="79" height="72" viewBox="0 0 79 72" fill="none" xmlns="http://www.w3.org/2000/svg">
<g clip-path="url(#clip0_134_127)">
<path d="M34.9161 66.396C31.186 62.6842 31.186 62.6842 29.5931 48.2211C23.7543 47.3128 16.6715 49.9871 12.4437 43.756C10.9265 41.5198 10.4072 38.4003 10.0802 35.608C9.48479 30.5247 12.7396 27.4329 17.0145 26.1508C20.992 24.9579 25.337 24.9901 30.2207 24.398C30.2207 20.8449 29.6578 16.965 30.3628 13.3312C31.25 8.7578 36.9269 4.7917 40.6315 5.23526C47.7896 6.09229 51.6557 9.92274 51.9755 16.6582C52.116 19.6169 51.9991 22.5879 51.9991 25.9757C55.3387 25.9757 58.312 25.9887 61.285 25.9731C67.6749 25.9396 72.7703 30.7938 72.0949 37.5146C71.5163 43.2726 67.4258 47.5032 60.6834 47.968C58.0393 48.1503 55.3721 47.9978 51.9999 47.9978C51.9999 50.5327 51.846 52.9624 52.0276 55.3666C52.6738 63.9195 44.6088 71.2248 34.9161 66.396ZM34.0002 22.5602C34.0002 24.9761 34.0002 27.3921 34.0002 29.4456C28.4449 30.0023 23.4077 29.9012 18.793 31.248C16.7582 31.8418 14.4461 35.2967 14.285 37.5946C14.0508 40.9346 16.888 42.9317 20.4973 42.9843C22.6545 43.0158 24.9158 43.3978 26.9362 42.8739C28.442 42.4834 30.5365 41.0908 30.8185 39.8045C32.2478 33.2853 36.4865 29.4513 42.2358 27.0923C45.2032 25.8747 49.1238 25.9069 47.9641 21.0817C47.1945 17.8796 46.7249 14.3205 44.9507 11.7196C42.9099 8.72776 39.6571 9.19352 36.8257 11.6225C33.619 14.3735 33.9448 18.0115 34.0002 22.5602ZM51.6531 43.0011C54.648 42.9979 57.6541 42.8288 60.6351 43.0303C65.0981 43.332 67.2871 40.1875 67.7305 36.9542C68.2459 33.1954 65.1748 30.7614 61.4619 30.082C59.3682 29.6989 57.0421 29.6012 55.0206 30.1338C53.5222 30.5286 51.5401 31.9172 51.16 33.2565C49.0678 40.6278 44.5388 45.1414 37.1359 47.1144C35.8851 47.4477 34.5936 49.1343 34.121 50.4772C33.5998 51.9578 33.9767 53.7635 34.0048 55.4268C34.0911 60.5228 36.0826 62.9281 40.2447 62.9993C44.6479 63.0746 47.786 60.0569 47.9751 55.3667C48.1024 52.2105 47.7803 49.0208 48.1249 45.8974C48.2401 44.8532 49.7964 43.9679 51.6531 43.0011ZM46.9388 32.3797C46.7511 31.7058 46.526 30.4351 46.3813 30.4442C41.082 30.7768 35.6171 36.9797 35.4093 42.9646C40.8167 41.4394 44.4559 38.117 46.9388 32.3797Z" fill="#17594A"/>
</g>
<defs>
<clipPath id="clip0_134_127">
<rect width="79" height="72" fill="white"/>
</clipPath>
</defs>
</svg>
