<svg width="63" height="63" viewBox="0 0 63 63" fill="none" xmlns="http://www.w3.org/2000/svg">
<path d="M24.9063 61.1947C21.1763 57.4829 21.1763 57.4829 19.5833 43.0198C13.7446 42.1115 6.66178 44.7858 2.43395 38.5547C0.916756 36.3186 0.397475 33.199 0.0704225 30.4067C-0.524975 25.3235 2.7298 22.2316 7.0047 20.9495C10.9823 19.7566 15.3272 19.7888 20.211 19.1967C20.211 15.6436 19.6481 11.7638 20.353 8.12986C21.2403 3.5565 26.9171 -0.409594 30.6218 0.0339623C37.7799 0.890993 41.6459 4.72144 41.9657 11.4569C42.1062 14.4156 41.9894 17.3866 41.9894 20.7745C45.329 20.7745 48.3022 20.7874 51.2753 20.7718C57.6652 20.7383 62.7606 25.5925 62.0852 32.3133C61.5065 38.0714 57.4161 42.3019 50.6736 42.7667C48.0295 42.949 45.3624 42.7966 41.9902 42.7966C41.9902 45.3315 41.8362 47.7611 42.0179 50.1653C42.664 58.7182 34.5991 66.0235 24.9063 61.1947ZM23.9905 17.3589C23.9905 19.7749 23.9905 22.1908 23.9905 24.2443C18.4351 24.801 13.3979 24.6999 8.78323 26.0467C6.74845 26.6405 4.43634 30.0954 4.27521 32.3933C4.041 35.7333 6.87822 37.7304 10.4875 37.783C12.6448 37.8145 14.906 38.1965 16.9264 37.6726C18.4322 37.2821 20.5267 35.8895 20.8087 34.6032C22.2381 28.084 26.4767 24.25 32.2261 21.891C35.1934 20.6735 39.114 20.7056 37.9543 15.8804C37.1847 12.6783 36.7152 9.11921 34.941 6.51827C32.9001 3.52647 29.6473 3.99223 26.816 6.42122C23.6093 9.17222 23.935 12.8102 23.9905 17.3589ZM41.6433 37.7998C44.6382 37.7966 47.6443 37.6275 50.6253 37.829C55.0883 38.1307 57.2773 34.9862 57.7207 31.7529C58.2361 27.9941 55.165 25.5602 51.4521 24.8807C49.3585 24.4976 47.0324 24.4 45.0109 24.9325C43.5125 25.3273 41.5303 26.7159 41.1502 28.0552C39.0581 35.4265 34.5291 39.9401 27.1261 41.9131C25.8754 42.2464 24.5839 43.933 24.1112 45.2759C23.5901 46.7565 23.9669 48.5622 23.9951 50.2255C24.0813 55.3215 26.0729 57.7268 30.235 57.798C34.6382 57.8733 37.7762 54.8556 37.9653 50.1654C38.0926 47.0092 37.7706 43.8195 38.1151 40.6961C38.2303 39.6519 39.7866 38.7666 41.6433 37.7998ZM36.929 27.1784C36.7414 26.5045 36.5163 25.2338 36.3715 25.2429C31.0722 25.5755 25.6073 31.7784 25.3995 37.7633C30.8069 36.2381 34.4461 32.9158 36.929 27.1784Z" fill="#ED7D31"/>
</svg>
